<mxfile host="app.diagrams.net" agent="Mozilla/5.0 (Windows NT 10.0; Win64; x64) AppleWebKit/537.36 (KHTML, like Gecko) Chrome/130.0.0.0 Safari/537.36" version="24.8.4">
  <diagram id="R2lEEEUBdFMjLlhIrx00" name="Page-1">
    <mxGraphModel dx="1839" dy="509" grid="1" gridSize="10" guides="1" tooltips="1" connect="1" arrows="1" fold="1" page="1" pageScale="1" pageWidth="850" pageHeight="1100" math="0" shadow="0" extFonts="Permanent Marker^https://fonts.googleapis.com/css?family=Permanent+Marker">
      <root>
        <mxCell id="0" />
        <mxCell id="1" parent="0" />
        <mxCell id="Qh6MG-PZgHSM0L6ZyIAf-1" value="First Name" style="ellipse;whiteSpace=wrap;html=1;align=center;" vertex="1" parent="1">
          <mxGeometry x="50" y="80" width="100" height="40" as="geometry" />
        </mxCell>
        <mxCell id="Qh6MG-PZgHSM0L6ZyIAf-2" value="User" style="whiteSpace=wrap;html=1;align=center;" vertex="1" parent="1">
          <mxGeometry x="180" y="170" width="100" height="40" as="geometry" />
        </mxCell>
        <mxCell id="Qh6MG-PZgHSM0L6ZyIAf-3" value="" style="endArrow=none;html=1;rounded=0;entryX=0.431;entryY=0.025;entryDx=0;entryDy=0;entryPerimeter=0;exitX=0.551;exitY=1.094;exitDx=0;exitDy=0;exitPerimeter=0;" edge="1" parent="1" source="Qh6MG-PZgHSM0L6ZyIAf-1" target="Qh6MG-PZgHSM0L6ZyIAf-2">
          <mxGeometry relative="1" as="geometry">
            <mxPoint x="260" y="120" as="sourcePoint" />
            <mxPoint x="300" y="170" as="targetPoint" />
          </mxGeometry>
        </mxCell>
        <mxCell id="Qh6MG-PZgHSM0L6ZyIAf-4" value="LastName" style="ellipse;whiteSpace=wrap;html=1;align=center;" vertex="1" parent="1">
          <mxGeometry x="180" y="60" width="100" height="40" as="geometry" />
        </mxCell>
        <mxCell id="Qh6MG-PZgHSM0L6ZyIAf-5" value="Email" style="ellipse;whiteSpace=wrap;html=1;align=center;" vertex="1" parent="1">
          <mxGeometry x="330" y="90" width="100" height="40" as="geometry" />
        </mxCell>
        <mxCell id="Qh6MG-PZgHSM0L6ZyIAf-6" value="" style="endArrow=none;html=1;rounded=0;entryX=1;entryY=0;entryDx=0;entryDy=0;" edge="1" parent="1" source="Qh6MG-PZgHSM0L6ZyIAf-5" target="Qh6MG-PZgHSM0L6ZyIAf-2">
          <mxGeometry relative="1" as="geometry">
            <mxPoint x="165" y="124" as="sourcePoint" />
            <mxPoint x="203" y="221" as="targetPoint" />
          </mxGeometry>
        </mxCell>
        <mxCell id="Qh6MG-PZgHSM0L6ZyIAf-7" value="" style="endArrow=none;html=1;rounded=0;entryX=0.569;entryY=0.008;entryDx=0;entryDy=0;entryPerimeter=0;" edge="1" parent="1" source="Qh6MG-PZgHSM0L6ZyIAf-4" target="Qh6MG-PZgHSM0L6ZyIAf-2">
          <mxGeometry relative="1" as="geometry">
            <mxPoint x="175" y="134" as="sourcePoint" />
            <mxPoint x="213" y="231" as="targetPoint" />
            <Array as="points">
              <mxPoint x="240" y="140" />
            </Array>
          </mxGeometry>
        </mxCell>
        <mxCell id="Qh6MG-PZgHSM0L6ZyIAf-8" value="&lt;span style=&quot;border-bottom: 1px dotted&quot;&gt;Type_of_User&lt;/span&gt;" style="ellipse;whiteSpace=wrap;html=1;align=center;" vertex="1" parent="1">
          <mxGeometry x="-20" y="140" width="100" height="40" as="geometry" />
        </mxCell>
        <mxCell id="Qh6MG-PZgHSM0L6ZyIAf-9" value="" style="endArrow=none;html=1;rounded=0;exitX=0;exitY=0.5;exitDx=0;exitDy=0;" edge="1" parent="1" source="Qh6MG-PZgHSM0L6ZyIAf-2" target="Qh6MG-PZgHSM0L6ZyIAf-8">
          <mxGeometry width="50" height="50" relative="1" as="geometry">
            <mxPoint x="310" y="150" as="sourcePoint" />
            <mxPoint x="360" y="100" as="targetPoint" />
          </mxGeometry>
        </mxCell>
        <mxCell id="Qh6MG-PZgHSM0L6ZyIAf-10" value="&lt;span style=&quot;border-bottom: 1px dotted&quot;&gt;Password&lt;/span&gt;" style="ellipse;whiteSpace=wrap;html=1;align=center;" vertex="1" parent="1">
          <mxGeometry x="390" y="140" width="100" height="40" as="geometry" />
        </mxCell>
        <mxCell id="Qh6MG-PZgHSM0L6ZyIAf-11" value="" style="endArrow=none;html=1;rounded=0;" edge="1" parent="1" source="Qh6MG-PZgHSM0L6ZyIAf-2" target="Qh6MG-PZgHSM0L6ZyIAf-10">
          <mxGeometry relative="1" as="geometry">
            <mxPoint x="260" y="120" as="sourcePoint" />
            <mxPoint x="420" y="120" as="targetPoint" />
          </mxGeometry>
        </mxCell>
        <mxCell id="Qh6MG-PZgHSM0L6ZyIAf-12" value="Student" style="rounded=1;arcSize=10;whiteSpace=wrap;html=1;align=center;" vertex="1" parent="1">
          <mxGeometry x="-160" y="430" width="100" height="40" as="geometry" />
        </mxCell>
        <mxCell id="Qh6MG-PZgHSM0L6ZyIAf-14" value="Techer" style="rounded=1;arcSize=10;whiteSpace=wrap;html=1;align=center;" vertex="1" parent="1">
          <mxGeometry x="700" y="425" width="100" height="40" as="geometry" />
        </mxCell>
        <mxCell id="Qh6MG-PZgHSM0L6ZyIAf-15" value="Assignment" style="rounded=1;arcSize=10;whiteSpace=wrap;html=1;align=center;" vertex="1" parent="1">
          <mxGeometry x="130" y="635" width="100" height="40" as="geometry" />
        </mxCell>
        <mxCell id="Qh6MG-PZgHSM0L6ZyIAf-16" value="Course" style="rounded=1;arcSize=10;whiteSpace=wrap;html=1;align=center;" vertex="1" parent="1">
          <mxGeometry x="135" y="890" width="100" height="40" as="geometry" />
        </mxCell>
        <mxCell id="Qh6MG-PZgHSM0L6ZyIAf-17" value="Submission" style="rounded=1;arcSize=10;whiteSpace=wrap;html=1;align=center;" vertex="1" parent="1">
          <mxGeometry x="130" y="430" width="100" height="40" as="geometry" />
        </mxCell>
        <mxCell id="Qh6MG-PZgHSM0L6ZyIAf-18" value="Evaluation" style="rounded=1;arcSize=10;whiteSpace=wrap;html=1;align=center;" vertex="1" parent="1">
          <mxGeometry x="425" y="425" width="80" height="40" as="geometry" />
        </mxCell>
        <mxCell id="Qh6MG-PZgHSM0L6ZyIAf-19" value="File" style="rounded=1;arcSize=10;whiteSpace=wrap;html=1;align=center;" vertex="1" parent="1">
          <mxGeometry x="425" y="630" width="100" height="40" as="geometry" />
        </mxCell>
        <mxCell id="Qh6MG-PZgHSM0L6ZyIAf-20" value="Is A" style="shape=rhombus;perimeter=rhombusPerimeter;whiteSpace=wrap;html=1;align=center;" vertex="1" parent="1">
          <mxGeometry x="-165" y="180" width="110" height="60" as="geometry" />
        </mxCell>
        <mxCell id="Qh6MG-PZgHSM0L6ZyIAf-21" value="Is A" style="shape=rhombus;perimeter=rhombusPerimeter;whiteSpace=wrap;html=1;align=center;" vertex="1" parent="1">
          <mxGeometry x="680" y="180" width="110" height="60" as="geometry" />
        </mxCell>
        <mxCell id="Qh6MG-PZgHSM0L6ZyIAf-22" value="Enroll" style="shape=rhombus;perimeter=rhombusPerimeter;whiteSpace=wrap;html=1;align=center;" vertex="1" parent="1">
          <mxGeometry x="-180" y="860" width="120" height="60" as="geometry" />
        </mxCell>
        <mxCell id="Qh6MG-PZgHSM0L6ZyIAf-24" value="teches" style="shape=rhombus;perimeter=rhombusPerimeter;whiteSpace=wrap;html=1;align=center;" vertex="1" parent="1">
          <mxGeometry x="690" y="870" width="120" height="60" as="geometry" />
        </mxCell>
        <mxCell id="Qh6MG-PZgHSM0L6ZyIAf-25" value="" style="endArrow=none;html=1;rounded=0;exitX=0.548;exitY=0.051;exitDx=0;exitDy=0;exitPerimeter=0;entryX=0.5;entryY=1;entryDx=0;entryDy=0;" edge="1" parent="1" source="Qh6MG-PZgHSM0L6ZyIAf-12" target="Qh6MG-PZgHSM0L6ZyIAf-20">
          <mxGeometry relative="1" as="geometry">
            <mxPoint x="260" y="280" as="sourcePoint" />
            <mxPoint x="420" y="280" as="targetPoint" />
          </mxGeometry>
        </mxCell>
        <mxCell id="Qh6MG-PZgHSM0L6ZyIAf-26" value="" style="endArrow=none;html=1;rounded=0;exitX=1;exitY=0.5;exitDx=0;exitDy=0;entryX=0.5;entryY=1;entryDx=0;entryDy=0;" edge="1" parent="1" source="Qh6MG-PZgHSM0L6ZyIAf-20" target="Qh6MG-PZgHSM0L6ZyIAf-2">
          <mxGeometry relative="1" as="geometry">
            <mxPoint x="260" y="280" as="sourcePoint" />
            <mxPoint x="420" y="280" as="targetPoint" />
          </mxGeometry>
        </mxCell>
        <mxCell id="Qh6MG-PZgHSM0L6ZyIAf-27" value="" style="endArrow=none;html=1;rounded=0;exitX=0.5;exitY=1;exitDx=0;exitDy=0;entryX=0.5;entryY=0;entryDx=0;entryDy=0;" edge="1" parent="1" source="Qh6MG-PZgHSM0L6ZyIAf-21" target="Qh6MG-PZgHSM0L6ZyIAf-14">
          <mxGeometry relative="1" as="geometry">
            <mxPoint x="260" y="280" as="sourcePoint" />
            <mxPoint x="420" y="280" as="targetPoint" />
          </mxGeometry>
        </mxCell>
        <mxCell id="Qh6MG-PZgHSM0L6ZyIAf-29" value="" style="endArrow=none;html=1;rounded=0;exitX=1;exitY=1;exitDx=0;exitDy=0;entryX=0;entryY=0.5;entryDx=0;entryDy=0;" edge="1" parent="1" source="Qh6MG-PZgHSM0L6ZyIAf-2" target="Qh6MG-PZgHSM0L6ZyIAf-21">
          <mxGeometry relative="1" as="geometry">
            <mxPoint x="650" y="180" as="sourcePoint" />
            <mxPoint x="680" y="280" as="targetPoint" />
          </mxGeometry>
        </mxCell>
        <mxCell id="Qh6MG-PZgHSM0L6ZyIAf-30" value="" style="endArrow=none;html=1;rounded=0;exitX=0.969;exitY=0.12;exitDx=0;exitDy=0;exitPerimeter=0;entryX=0;entryY=0.5;entryDx=0;entryDy=0;" edge="1" parent="1" source="Qh6MG-PZgHSM0L6ZyIAf-16" target="Qh6MG-PZgHSM0L6ZyIAf-24">
          <mxGeometry width="50" height="50" relative="1" as="geometry">
            <mxPoint x="310" y="510" as="sourcePoint" />
            <mxPoint x="350" y="470" as="targetPoint" />
          </mxGeometry>
        </mxCell>
        <mxCell id="Qh6MG-PZgHSM0L6ZyIAf-31" value="" style="endArrow=none;html=1;rounded=0;exitX=0.446;exitY=0.999;exitDx=0;exitDy=0;exitPerimeter=0;entryX=0.5;entryY=0;entryDx=0;entryDy=0;" edge="1" parent="1" source="Qh6MG-PZgHSM0L6ZyIAf-14" target="Qh6MG-PZgHSM0L6ZyIAf-24">
          <mxGeometry width="50" height="50" relative="1" as="geometry">
            <mxPoint x="297" y="535" as="sourcePoint" />
            <mxPoint x="360" y="480" as="targetPoint" />
          </mxGeometry>
        </mxCell>
        <mxCell id="Qh6MG-PZgHSM0L6ZyIAf-32" value="" style="endArrow=none;html=1;rounded=0;exitX=0.5;exitY=1;exitDx=0;exitDy=0;entryX=0.5;entryY=0;entryDx=0;entryDy=0;" edge="1" parent="1" source="Qh6MG-PZgHSM0L6ZyIAf-12" target="Qh6MG-PZgHSM0L6ZyIAf-22">
          <mxGeometry width="50" height="50" relative="1" as="geometry">
            <mxPoint x="420" y="390" as="sourcePoint" />
            <mxPoint x="360" y="420" as="targetPoint" />
          </mxGeometry>
        </mxCell>
        <mxCell id="Qh6MG-PZgHSM0L6ZyIAf-33" value="" style="endArrow=none;html=1;rounded=0;exitX=0;exitY=0.5;exitDx=0;exitDy=0;entryX=0.5;entryY=1;entryDx=0;entryDy=0;" edge="1" parent="1" source="Qh6MG-PZgHSM0L6ZyIAf-16" target="Qh6MG-PZgHSM0L6ZyIAf-22">
          <mxGeometry width="50" height="50" relative="1" as="geometry">
            <mxPoint x="100" y="390" as="sourcePoint" />
            <mxPoint x="160" y="420" as="targetPoint" />
          </mxGeometry>
        </mxCell>
        <mxCell id="Qh6MG-PZgHSM0L6ZyIAf-35" value="" style="endArrow=none;html=1;rounded=0;exitX=0.5;exitY=0;exitDx=0;exitDy=0;entryX=0.5;entryY=1;entryDx=0;entryDy=0;" edge="1" parent="1" source="Qh6MG-PZgHSM0L6ZyIAf-34" target="Qh6MG-PZgHSM0L6ZyIAf-15">
          <mxGeometry width="50" height="50" relative="1" as="geometry">
            <mxPoint x="200" y="550" as="sourcePoint" />
            <mxPoint x="160" y="480" as="targetPoint" />
          </mxGeometry>
        </mxCell>
        <mxCell id="Qh6MG-PZgHSM0L6ZyIAf-36" value="" style="endArrow=none;html=1;rounded=0;entryX=0.5;entryY=0;entryDx=0;entryDy=0;" edge="1" parent="1" source="Qh6MG-PZgHSM0L6ZyIAf-34" target="Qh6MG-PZgHSM0L6ZyIAf-16">
          <mxGeometry width="50" height="50" relative="1" as="geometry">
            <mxPoint x="320" y="660" as="sourcePoint" />
            <mxPoint x="250" y="680" as="targetPoint" />
          </mxGeometry>
        </mxCell>
        <mxCell id="Qh6MG-PZgHSM0L6ZyIAf-34" value="has to" style="shape=rhombus;perimeter=rhombusPerimeter;whiteSpace=wrap;html=1;align=center;" vertex="1" parent="1">
          <mxGeometry x="120" y="710" width="120" height="60" as="geometry" />
        </mxCell>
        <mxCell id="Qh6MG-PZgHSM0L6ZyIAf-41" value="has" style="shape=rhombus;perimeter=rhombusPerimeter;whiteSpace=wrap;html=1;align=center;" vertex="1" parent="1">
          <mxGeometry x="135" y="580" width="90" height="30" as="geometry" />
        </mxCell>
        <mxCell id="Qh6MG-PZgHSM0L6ZyIAf-42" value="has" style="shape=rhombus;perimeter=rhombusPerimeter;whiteSpace=wrap;html=1;align=center;" vertex="1" parent="1">
          <mxGeometry x="270" y="425" width="100" height="50" as="geometry" />
        </mxCell>
        <mxCell id="Qh6MG-PZgHSM0L6ZyIAf-43" value="" style="endArrow=none;html=1;rounded=0;entryX=1;entryY=0.5;entryDx=0;entryDy=0;exitX=0;exitY=0.5;exitDx=0;exitDy=0;" edge="1" parent="1" source="Qh6MG-PZgHSM0L6ZyIAf-42" target="Qh6MG-PZgHSM0L6ZyIAf-17">
          <mxGeometry relative="1" as="geometry">
            <mxPoint x="260" y="540" as="sourcePoint" />
            <mxPoint x="420" y="540" as="targetPoint" />
          </mxGeometry>
        </mxCell>
        <mxCell id="Qh6MG-PZgHSM0L6ZyIAf-44" value="" style="endArrow=none;html=1;rounded=0;entryX=0.024;entryY=0.654;entryDx=0;entryDy=0;exitX=1;exitY=0.5;exitDx=0;exitDy=0;entryPerimeter=0;" edge="1" parent="1" source="Qh6MG-PZgHSM0L6ZyIAf-42" target="Qh6MG-PZgHSM0L6ZyIAf-18">
          <mxGeometry relative="1" as="geometry">
            <mxPoint x="295" y="470" as="sourcePoint" />
            <mxPoint x="290" y="510" as="targetPoint" />
          </mxGeometry>
        </mxCell>
        <mxCell id="Qh6MG-PZgHSM0L6ZyIAf-45" value="" style="endArrow=none;html=1;rounded=0;exitX=0.5;exitY=0;exitDx=0;exitDy=0;entryX=0.5;entryY=1;entryDx=0;entryDy=0;" edge="1" parent="1" source="Qh6MG-PZgHSM0L6ZyIAf-41" target="Qh6MG-PZgHSM0L6ZyIAf-17">
          <mxGeometry relative="1" as="geometry">
            <mxPoint x="260" y="680" as="sourcePoint" />
            <mxPoint x="420" y="680" as="targetPoint" />
          </mxGeometry>
        </mxCell>
        <mxCell id="Qh6MG-PZgHSM0L6ZyIAf-46" value="" style="endArrow=none;html=1;rounded=0;exitX=0.5;exitY=1;exitDx=0;exitDy=0;entryX=0.5;entryY=0;entryDx=0;entryDy=0;" edge="1" parent="1" source="Qh6MG-PZgHSM0L6ZyIAf-41" target="Qh6MG-PZgHSM0L6ZyIAf-15">
          <mxGeometry relative="1" as="geometry">
            <mxPoint x="290" y="590" as="sourcePoint" />
            <mxPoint x="290" y="550" as="targetPoint" />
          </mxGeometry>
        </mxCell>
        <mxCell id="Qh6MG-PZgHSM0L6ZyIAf-48" value="Submit" style="shape=rhombus;perimeter=rhombusPerimeter;whiteSpace=wrap;html=1;align=center;" vertex="1" parent="1">
          <mxGeometry x="-10" y="425" width="100" height="50" as="geometry" />
        </mxCell>
        <mxCell id="Qh6MG-PZgHSM0L6ZyIAf-49" value="" style="endArrow=none;html=1;rounded=0;entryX=0;entryY=0.5;entryDx=0;entryDy=0;exitX=1;exitY=0.5;exitDx=0;exitDy=0;" edge="1" parent="1" source="Qh6MG-PZgHSM0L6ZyIAf-48" target="Qh6MG-PZgHSM0L6ZyIAf-17">
          <mxGeometry relative="1" as="geometry">
            <mxPoint x="260" y="540" as="sourcePoint" />
            <mxPoint x="420" y="540" as="targetPoint" />
          </mxGeometry>
        </mxCell>
        <mxCell id="Qh6MG-PZgHSM0L6ZyIAf-50" value="" style="endArrow=none;html=1;rounded=0;exitX=1;exitY=0.5;exitDx=0;exitDy=0;entryX=0;entryY=0.5;entryDx=0;entryDy=0;" edge="1" parent="1" source="Qh6MG-PZgHSM0L6ZyIAf-12" target="Qh6MG-PZgHSM0L6ZyIAf-48">
          <mxGeometry relative="1" as="geometry">
            <mxPoint x="260" y="540" as="sourcePoint" />
            <mxPoint x="420" y="540" as="targetPoint" />
          </mxGeometry>
        </mxCell>
        <mxCell id="Qh6MG-PZgHSM0L6ZyIAf-51" value="has" style="shape=rhombus;perimeter=rhombusPerimeter;whiteSpace=wrap;html=1;align=center;" vertex="1" parent="1">
          <mxGeometry x="410" y="500" width="120" height="60" as="geometry" />
        </mxCell>
        <mxCell id="Qh6MG-PZgHSM0L6ZyIAf-53" value="evaluate" style="shape=rhombus;perimeter=rhombusPerimeter;whiteSpace=wrap;html=1;align=center;" vertex="1" parent="1">
          <mxGeometry x="580" y="422.5" width="80" height="45" as="geometry" />
        </mxCell>
        <mxCell id="Qh6MG-PZgHSM0L6ZyIAf-58" value="" style="endArrow=none;html=1;rounded=0;exitX=0.5;exitY=0;exitDx=0;exitDy=0;entryX=0.5;entryY=1;entryDx=0;entryDy=0;" edge="1" parent="1" source="Qh6MG-PZgHSM0L6ZyIAf-19" target="Qh6MG-PZgHSM0L6ZyIAf-51">
          <mxGeometry relative="1" as="geometry">
            <mxPoint x="260" y="470" as="sourcePoint" />
            <mxPoint x="420" y="470" as="targetPoint" />
          </mxGeometry>
        </mxCell>
        <mxCell id="Qh6MG-PZgHSM0L6ZyIAf-59" value="" style="endArrow=none;html=1;rounded=0;exitX=0.5;exitY=0;exitDx=0;exitDy=0;entryX=0.451;entryY=1.077;entryDx=0;entryDy=0;entryPerimeter=0;" edge="1" parent="1" source="Qh6MG-PZgHSM0L6ZyIAf-51" target="Qh6MG-PZgHSM0L6ZyIAf-18">
          <mxGeometry relative="1" as="geometry">
            <mxPoint x="260" y="470" as="sourcePoint" />
            <mxPoint x="420" y="470" as="targetPoint" />
          </mxGeometry>
        </mxCell>
        <mxCell id="Qh6MG-PZgHSM0L6ZyIAf-61" value="" style="endArrow=none;html=1;rounded=0;exitX=1;exitY=0.5;exitDx=0;exitDy=0;entryX=0;entryY=0.5;entryDx=0;entryDy=0;" edge="1" parent="1" source="Qh6MG-PZgHSM0L6ZyIAf-18" target="Qh6MG-PZgHSM0L6ZyIAf-53">
          <mxGeometry relative="1" as="geometry">
            <mxPoint x="260" y="470" as="sourcePoint" />
            <mxPoint x="420" y="470" as="targetPoint" />
          </mxGeometry>
        </mxCell>
        <mxCell id="Qh6MG-PZgHSM0L6ZyIAf-62" value="" style="endArrow=none;html=1;rounded=0;exitX=1;exitY=0.5;exitDx=0;exitDy=0;entryX=0;entryY=0.5;entryDx=0;entryDy=0;" edge="1" parent="1" source="Qh6MG-PZgHSM0L6ZyIAf-53" target="Qh6MG-PZgHSM0L6ZyIAf-14">
          <mxGeometry relative="1" as="geometry">
            <mxPoint x="510" y="440" as="sourcePoint" />
            <mxPoint x="560" y="430" as="targetPoint" />
          </mxGeometry>
        </mxCell>
        <mxCell id="Qh6MG-PZgHSM0L6ZyIAf-63" value="assignment_type&lt;br&gt;group or individual" style="ellipse;whiteSpace=wrap;html=1;align=center;fontStyle=4;" vertex="1" parent="1">
          <mxGeometry x="-60" y="620" width="120" height="70" as="geometry" />
        </mxCell>
        <mxCell id="Qh6MG-PZgHSM0L6ZyIAf-64" value="publish" style="shape=rhombus;perimeter=rhombusPerimeter;whiteSpace=wrap;html=1;align=center;" vertex="1" parent="1">
          <mxGeometry x="410" y="320" width="90" height="50" as="geometry" />
        </mxCell>
        <mxCell id="Qh6MG-PZgHSM0L6ZyIAf-65" value="Moodle" style="rounded=1;arcSize=10;whiteSpace=wrap;html=1;align=center;" vertex="1" parent="1">
          <mxGeometry x="400" y="240" width="100" height="40" as="geometry" />
        </mxCell>
        <mxCell id="Qh6MG-PZgHSM0L6ZyIAf-67" value="extract" style="shape=rhombus;perimeter=rhombusPerimeter;whiteSpace=wrap;html=1;align=center;" vertex="1" parent="1">
          <mxGeometry x="150" y="240" width="60" height="50" as="geometry" />
        </mxCell>
        <mxCell id="Qh6MG-PZgHSM0L6ZyIAf-68" value="" style="endArrow=none;html=1;rounded=0;exitX=0.5;exitY=0;exitDx=0;exitDy=0;entryX=0.5;entryY=1;entryDx=0;entryDy=0;" edge="1" parent="1" source="Qh6MG-PZgHSM0L6ZyIAf-17" target="Qh6MG-PZgHSM0L6ZyIAf-67">
          <mxGeometry relative="1" as="geometry">
            <mxPoint x="260" y="470" as="sourcePoint" />
            <mxPoint x="420" y="470" as="targetPoint" />
          </mxGeometry>
        </mxCell>
        <mxCell id="Qh6MG-PZgHSM0L6ZyIAf-69" value="" style="endArrow=none;html=1;rounded=0;entryX=0.5;entryY=1;entryDx=0;entryDy=0;" edge="1" parent="1" source="Qh6MG-PZgHSM0L6ZyIAf-64" target="Qh6MG-PZgHSM0L6ZyIAf-65">
          <mxGeometry relative="1" as="geometry">
            <mxPoint x="190" y="440" as="sourcePoint" />
            <mxPoint x="190" y="390" as="targetPoint" />
          </mxGeometry>
        </mxCell>
        <mxCell id="Qh6MG-PZgHSM0L6ZyIAf-70" value="" style="endArrow=none;html=1;rounded=0;exitX=0.441;exitY=-0.057;exitDx=0;exitDy=0;exitPerimeter=0;" edge="1" parent="1" source="Qh6MG-PZgHSM0L6ZyIAf-18" target="Qh6MG-PZgHSM0L6ZyIAf-64">
          <mxGeometry relative="1" as="geometry">
            <mxPoint x="460" y="330" as="sourcePoint" />
            <mxPoint x="460" y="290" as="targetPoint" />
          </mxGeometry>
        </mxCell>
        <mxCell id="Qh6MG-PZgHSM0L6ZyIAf-71" value="" style="endArrow=none;html=1;rounded=0;exitX=0;exitY=0.5;exitDx=0;exitDy=0;entryX=1;entryY=0.5;entryDx=0;entryDy=0;" edge="1" parent="1" source="Qh6MG-PZgHSM0L6ZyIAf-65" target="Qh6MG-PZgHSM0L6ZyIAf-67">
          <mxGeometry relative="1" as="geometry">
            <mxPoint x="470" y="433" as="sourcePoint" />
            <mxPoint x="467" y="379" as="targetPoint" />
          </mxGeometry>
        </mxCell>
      </root>
    </mxGraphModel>
  </diagram>
</mxfile>
